<?xml version="1.0" encoding="UTF-8" standalone="no"?>
<!DOCTYPE svg PUBLIC "-//W3C//DTD SVG 1.1//EN" "http://www.w3.org/Graphics/SVG/1.1/DTD/svg11.dtd">
<svg xmlns="http://www.w3.org/2000/svg" xmlns:xlink="http://www.w3.org/1999/xlink" version="1.1" width="500pt" height="500pt" viewBox="0 0 500 500">
<g enable-background="new">
<g id="Layer-1" data-name="Layer">
<g id="Layer-2" data-name="AltAI8">
</g>
</g>
<g id="Layer-1" data-name="Layer">
<path transform="matrix(1,0,0,-1,341.7305,195.6099)" d="M 0 0 L -66.521 -133.06 L -67.9 -135.82 L -69.28 -133.06 L -69.291 -133.06 L -90.141 -91.35 L -90.48 -90.66 L -30.101 30.1 L -28.58 28.58 Z " fill="#ffffff"/>
<path transform="matrix(1,0,0,-1,216.9858,159.73142)" d="M 0 0 L -1.618 -4.044 L .013 .004 Z " fill="#ffffff"/>
<path transform="matrix(1,0,0,-1,187.3701,165.51032)" d="M 0 0 L -30.1 -30.1 L 62.13 -214.57 L 84.71 -169.419 Z " fill="#ffffff"/>
<path transform="matrix(1,0,0,-1,218.5137,155.96631)" d="M 0 0 L -1.515 -3.761 L -3.146 -7.81 L -14.464 -35.911 L -14.42 -35.998 L -14.42 -35.996 L -13.887 -37.061 L 13.918 4.64 Z " fill="#ffffff"/>
<path transform="matrix(1,0,0,-1,232.8784,120)" d="M 0 0 L -43.178 -43.179 L -42.68 -44.174 L -29.444 -70.647 L -29.443 -70.647 L -28.829 -71.877 L -17.51 -43.776 L -15.893 -39.731 L -15.879 -39.727 L -14.365 -35.966 L -14.39 -35.975 Z " fill="#ffffff"/>
<path transform="matrix(1,0,0,-1,282.0137,159.73142)" d="M 0 0 L -.013 .004 L 1.553 -3.88 Z " fill="#ffffff"/>
<path transform="matrix(1,0,0,-1,283.5664,163.61179)" d="M 0 0 L -1.565 3.884 L -3.08 7.646 L -16.998 12.285 L -14.5 8.539 L 9.332 -27.202 L 10.809 -29.415 L 11.34 -28.352 L 11.341 -28.352 L 11.384 -28.265 Z " fill="#ffffff"/>
<path transform="matrix(1,0,0,-1,309.2998,163.17871)" d="M 0 0 L -43.18 43.179 L -28.789 7.205 L -28.813 7.213 L -27.299 3.451 L -27.286 3.447 L -25.733 -.433 L -14.35 -28.698 L -13.759 -27.517 L -12.544 -25.088 L -12.544 -25.087 Z " fill="#ffffff"/>
</g>
</g>
</svg>
